<?xml version="1.0" standalone="no"?>
<!DOCTYPE svg PUBLIC "-//W3C//DTD SVG 20010904//EN"
 "http://www.w3.org/TR/2001/REC-SVG-20010904/DTD/svg10.dtd">
<svg version="1.0" xmlns="http://www.w3.org/2000/svg"
 width="1280.000000pt" height="544.000000pt" viewBox="0 0 1280.000000 544.000000"
 preserveAspectRatio="xMidYMid meet">
<metadata>
Created by potrace 1.16, written by Peter Selinger 2001-2019
</metadata>
<g transform="translate(0.000000,544.000000) scale(0.100000,-0.100000)"
fill="#000000" stroke="none">
<path d="M9045 4994 c-251 -28 -319 -66 -494 -274 -112 -133 -151 -189 -173
-246 -43 -115 -171 -284 -243 -321 -24 -13 -48 -14 -145 -7 -140 11 -331 8
-425 -6 -38 -6 -84 -12 -101 -14 -50 -7 -205 -48 -250 -67 -23 -9 -56 -30 -75
-47 -19 -16 -63 -50 -99 -76 -64 -47 -65 -48 -124 -41 -33 3 -62 8 -66 10 -4
2 -41 8 -84 14 -43 5 -80 12 -83 15 -3 3 -14 68 -23 144 -24 181 -55 253 -161
367 -41 44 -87 99 -103 122 -32 49 -109 110 -181 145 -99 49 -374 67 -561 35
-142 -23 -279 -100 -410 -229 l-81 -80 -124 -9 c-231 -16 -297 -28 -388 -70
-125 -58 -153 -54 -251 36 -116 106 -232 131 -570 122 -174 -5 -215 -9 -269
-27 -99 -33 -195 -73 -311 -128 -58 -27 -172 -80 -255 -117 -82 -36 -211 -94
-285 -127 -143 -65 -206 -79 -262 -59 -119 43 -340 59 -506 37 -188 -25 -222
-49 -299 -216 -48 -104 -66 -127 -133 -173 -54 -37 -60 -44 -105 -122 -19 -33
-47 -72 -62 -86 -71 -66 -234 -159 -423 -242 -64 -28 -218 -76 -375 -115 -44
-12 -116 -30 -160 -42 -44 -11 -89 -22 -100 -24 -61 -10 -161 -63 -218 -114
l-27 -26 0 -382 0 -382 32 -28 c40 -33 88 -54 137 -59 193 -22 248 -24 343
-14 57 6 120 12 141 14 25 2 73 24 131 59 61 37 102 56 124 56 29 0 32 -3 32
-32 0 -52 -32 -93 -87 -113 -134 -49 -227 -114 -265 -189 -43 -82 -59 -337
-34 -518 15 -104 19 -114 65 -172 37 -47 38 -67 7 -143 -13 -32 -33 -85 -45
-118 -13 -33 -38 -98 -56 -145 -45 -115 -52 -144 -66 -281 -14 -133 -2 -294
29 -390 l17 -54 550 -3 c609 -3 621 -1 693 62 33 29 117 183 142 261 7 22 16
45 20 50 4 6 10 21 13 35 2 14 21 70 42 125 20 55 38 105 39 110 4 19 38 130
52 171 8 23 17 52 19 64 8 39 27 94 39 109 14 18 135 7 213 -20 32 -11 92 -23
133 -27 102 -10 367 -9 465 1 191 20 375 128 471 275 46 72 59 82 104 82 48 0
72 -19 114 -89 42 -69 100 -124 159 -151 57 -26 308 -108 382 -125 70 -17 455
-20 520 -5 22 5 52 11 66 14 69 12 205 96 303 187 70 64 100 72 219 58 146
-17 390 -7 491 21 201 54 283 132 417 395 85 164 88 167 200 135 75 -22 103
-24 298 -24 311 -1 331 1 476 59 108 44 219 138 314 269 18 25 43 49 55 52 25
6 253 -11 279 -22 10 -3 27 -24 37 -45 29 -56 76 -106 143 -150 32 -21 62 -39
66 -39 4 0 22 -7 39 -15 59 -30 209 -48 392 -48 214 0 337 18 442 66 248 114
392 337 466 721 12 62 28 116 38 127 27 30 77 23 188 -25 163 -71 300 -95 541
-96 166 0 272 10 414 41 127 27 174 50 210 103 50 73 79 90 247 145 88 28 168
53 179 55 11 2 101 31 200 64 443 148 562 178 745 187 334 17 446 46 553 143
l27 26 0 377 0 377 -30 26 c-38 32 -143 63 -257 78 -111 13 -381 4 -486 -16
-43 -9 -95 -18 -115 -21 -62 -8 -194 -35 -247 -50 -27 -7 -61 -16 -75 -18 -34
-7 -280 -73 -360 -98 -94 -29 -198 -62 -331 -105 -64 -20 -123 -34 -131 -31
-13 4 -14 35 -10 199 6 247 -8 328 -80 473 -62 123 -119 186 -212 231 -118 57
-178 65 -451 60 -132 -3 -262 -8 -289 -11 -48 -7 -49 -7 -100 43 -57 56 -100
76 -196 92 -75 12 -286 20 -345 14z m190 -378 c45 -19 67 -55 67 -112 1 -37
-9 -67 -51 -148 -29 -56 -51 -106 -49 -112 3 -10 -1 -21 -81 -210 -70 -168
-84 -232 -85 -389 -1 -157 4 -178 45 -195 38 -16 87 -5 217 47 85 34 237 107
258 124 7 6 7 30 -2 81 -31 177 -10 348 61 493 139 285 409 383 603 220 41
-35 89 -133 98 -201 4 -33 12 -58 20 -61 8 -3 14 -9 14 -15 0 -5 -4 -7 -9 -3
-6 3 -15 -3 -20 -14 -15 -27 -14 -31 7 -31 14 0 13 -3 -6 -18 -12 -10 -33 -41
-47 -69 -13 -28 -46 -85 -74 -127 -28 -41 -51 -80 -51 -85 0 -13 -100 -137
-194 -239 -82 -91 -83 -94 -29 -143 71 -67 190 -90 360 -71 143 16 277 52 638
172 686 227 1171 350 1387 351 113 0 157 -30 158 -108 0 -54 -33 -94 -114
-135 -50 -26 -73 -32 -131 -32 -66 -1 -70 0 -69 22 0 12 -1 22 -3 22 -26 0
-298 -60 -427 -95 -157 -42 -265 -75 -887 -275 -299 -97 -428 -129 -539 -136
-123 -7 -171 -14 -165 -24 14 -23 -86 -17 -150 10 l-30 13 25 7 25 6 -27 7
c-38 10 -144 73 -198 117 -25 21 -63 63 -85 94 -28 39 -47 56 -62 56 -13 0
-23 -4 -23 -10 0 -5 -8 -10 -18 -10 -23 0 -252 -98 -271 -115 -11 -11 -6 -15
25 -25 22 -7 42 -15 47 -17 15 -9 -21 -30 -143 -82 -173 -75 -177 -79 -184
-149 -33 -318 -94 -487 -225 -626 -72 -75 -123 -110 -199 -135 -88 -30 -202
-33 -202 -5 0 14 -3 14 -15 4 -12 -10 -15 -9 -15 4 0 10 -4 14 -10 11 -5 -3
-10 -1 -10 6 0 10 -3 10 -12 1 -18 -18 -28 -15 -28 9 0 18 -2 19 -15 9 -12
-10 -22 -8 -54 13 -22 15 -47 37 -56 49 -54 75 -114 185 -125 226 -16 61 -33
102 -42 102 -12 0 -10 65 3 116 6 24 15 44 20 44 5 0 9 9 9 19 0 11 6 26 13
33 7 7 16 22 21 33 13 35 71 104 87 105 22 0 74 26 139 70 75 51 211 120 360
184 l125 54 -2 43 c-4 70 -13 110 -24 104 -5 -4 -9 3 -9 14 0 11 5 23 10 26 7
4 10 53 9 125 l-1 119 -22 -14 c-12 -8 -54 -49 -94 -91 l-72 -76 -64 7 c-62 7
-67 6 -125 -29 -101 -62 -191 -89 -306 -92 -55 -1 -106 -3 -113 -3 -9 -1 -11
-8 -7 -23 14 -44 6 -117 -29 -256 -65 -256 -127 -387 -228 -478 -24 -21 -50
-52 -59 -69 -13 -24 -25 -31 -58 -36 -23 -3 -44 -3 -47 0 -3 3 -47 6 -97 7
-88 1 -200 28 -234 55 -7 7 -18 6 -31 -2 -16 -10 -24 -9 -45 7 -25 19 -77 109
-77 134 0 8 -11 47 -25 87 -33 94 -41 206 -22 301 16 81 14 83 -46 58 -32 -13
-33 -16 -45 -100 -7 -48 -17 -155 -22 -239 -12 -182 -28 -255 -81 -365 -33
-68 -58 -101 -131 -175 -50 -51 -90 -96 -89 -100 4 -21 -83 -65 -94 -48 -2 5
-28 2 -57 -6 -75 -21 -202 -20 -266 1 -58 20 -202 110 -202 127 0 6 -6 9 -13
6 -17 -6 -39 12 -57 48 -8 17 -21 34 -27 38 -7 4 -13 20 -14 35 l0 27 -11 -25
c-6 -14 -47 -100 -90 -193 -43 -92 -78 -172 -78 -178 0 -6 20 1 45 16 44 25
85 27 85 4 0 -6 -9 -7 -20 -4 -25 8 -81 -25 -104 -60 -19 -29 -12 -53 9 -35
17 14 27 -1 19 -27 -5 -15 -4 -15 5 -3 7 10 13 12 20 5 7 -7 3 -20 -13 -40
l-24 -30 -7 30 c-12 54 -14 57 -35 50 -13 -4 -20 -2 -20 6 0 10 -3 10 -12 1
-10 -10 -7 -16 10 -28 12 -8 22 -22 22 -30 0 -19 -10 -18 -26 4 -12 16 -14 16
-28 -3 -10 -14 -11 -24 -4 -32 7 -9 6 -15 -6 -19 -9 -3 -16 -12 -16 -20 0 -8
-8 -14 -17 -14 -10 0 -39 -25 -66 -55 -34 -39 -69 -65 -122 -91 -70 -35 -78
-36 -152 -32 -89 5 -150 28 -208 79 -33 29 -46 34 -89 34 l-50 0 0 50 c0 28 4
63 8 80 6 23 -24 -3 -140 -124 -188 -194 -325 -309 -432 -363 -75 -38 -92 -42
-155 -43 -62 0 -79 4 -127 31 -103 58 -147 145 -156 309 -5 78 -2 102 21 180
60 206 118 383 140 425 79 152 80 220 5 253 -24 10 -65 17 -101 17 l-60 0 6
-55 c12 -90 -64 -377 -133 -510 -47 -89 -142 -187 -214 -220 -149 -68 -352
-27 -461 95 -84 93 -120 237 -98 391 7 50 11 92 9 94 -2 3 -20 -1 -40 -7 -36
-11 -37 -11 -52 -97 -9 -47 -20 -148 -26 -224 -12 -149 -36 -259 -71 -329 -61
-121 -178 -246 -275 -294 -28 -13 -86 -32 -129 -41 -255 -52 -465 130 -465
403 0 35 -3 44 -17 44 -10 0 -126 -58 -258 -128 l-239 -127 -61 -235 c-73
-277 -103 -377 -197 -644 -83 -235 -146 -380 -183 -418 -22 -23 -35 -28 -76
-28 -40 0 -55 5 -74 25 -31 30 -33 76 -5 113 59 79 350 961 350 1060 0 27 -10
28 -102 2 -89 -24 -145 -26 -170 -3 -39 35 -9 112 59 157 21 13 89 41 151 61
81 26 117 43 128 60 16 25 183 687 208 827 17 94 21 238 7 238 -5 0 -60 -25
-123 -55 -146 -70 -393 -151 -623 -205 -206 -48 -227 -56 -235 -90 -3 -13 -20
-33 -38 -43 -31 -18 -35 -19 -77 -3 -64 25 -105 99 -84 154 28 73 101 112 286
152 398 87 692 198 918 348 124 82 228 170 221 188 -3 8 12 32 34 56 21 23 36
46 33 52 -4 5 3 7 15 4 37 -10 102 85 148 217 35 102 49 123 88 133 46 12 73
4 107 -36 36 -40 35 -52 -5 -152 -58 -143 -68 -171 -62 -177 7 -7 40 9 161 74
87 48 136 70 630 288 220 98 499 223 620 280 268 125 302 138 385 138 116 2
197 -56 239 -168 26 -69 26 -88 1 -140 -33 -69 -88 -123 -198 -197 -158 -106
-222 -170 -236 -235 -10 -43 27 -83 76 -83 46 0 212 49 348 103 63 25 198 73
300 106 102 33 193 66 202 73 8 7 25 43 37 79 40 124 178 301 267 344 21 10
64 21 95 23 71 5 107 -21 116 -85 5 -37 2 -45 -25 -73 -31 -31 -60 -38 -79
-19 -18 18 -74 -50 -126 -153 -26 -51 -47 -99 -47 -105 0 -8 38 -13 128 -15
70 -2 134 -5 142 -8 11 -4 31 26 72 107 65 129 199 335 289 447 114 143 240
213 350 197 57 -9 79 -4 80 17 0 12 3 11 9 -5 5 -12 27 -31 48 -42 124 -63
189 -246 144 -406 -64 -230 -266 -636 -464 -932 -49 -73 -87 -133 -85 -133 3
0 30 34 62 76 32 42 69 83 82 91 13 8 23 21 23 28 0 8 12 23 28 35 15 12 26
24 24 26 -6 9 33 64 50 70 16 5 22 16 20 35 -1 4 10 17 23 29 14 13 25 31 25
41 0 9 7 20 16 23 8 3 12 10 9 16 -3 5 8 25 24 42 17 18 31 38 31 44 0 6 7 17
15 24 8 7 13 16 10 20 -7 11 16 60 27 60 4 0 8 8 8 18 0 10 7 28 16 40 9 13
13 29 10 37 -2 7 2 19 10 26 15 12 47 75 48 94 1 15 39 56 45 49 3 -3 -1 -9
-9 -14 -10 -6 -11 -12 -2 -22 6 -8 7 -19 3 -27 -5 -7 -6 -22 -4 -32 6 -21 -13
-79 -53 -166 -24 -52 -39 -89 -44 -108 -2 -5 -13 -26 -24 -45 -12 -19 -35 -62
-51 -95 -15 -33 -36 -71 -46 -85 -9 -14 -28 -46 -41 -70 -46 -85 -70 -125 -83
-140 -8 -9 -33 -45 -57 -81 -39 -59 -61 -88 -138 -183 -14 -17 -38 -50 -53
-74 -15 -23 -51 -70 -80 -105 -29 -34 -56 -69 -60 -77 -4 -8 -34 -51 -67 -95
-86 -115 -160 -227 -160 -241 0 -7 -4 -14 -9 -16 -13 -5 -24 -48 -12 -48 6 0
11 4 11 9 0 5 14 19 30 31 l30 22 -1 -77 c-1 -75 0 -79 30 -107 l31 -29 27 21
c42 33 57 58 44 74 -17 21 45 118 70 111 16 -5 31 19 93 147 41 84 114 245
161 358 58 135 102 223 129 258 22 30 55 71 71 92 33 43 148 133 235 184 31
18 93 60 139 94 91 68 114 77 167 67 56 -10 83 -26 104 -60 39 -63 22 -118
-47 -154 -13 -6 -23 -18 -23 -26 0 -26 -123 -140 -198 -184 -63 -37 -76 -49
-101 -100 -43 -84 -58 -166 -42 -233 20 -89 70 -143 136 -149 56 -4 77 1 82
20 2 10 16 24 29 31 13 8 24 20 25 29 0 9 2 12 5 6 2 -5 24 -10 48 -9 53 1
100 33 151 102 52 70 76 144 83 245 4 76 3 87 -12 87 -17 0 -22 15 -7 24 5 4
11 0 14 -6 2 -7 7 14 11 47 3 33 11 100 17 148 6 49 7 92 3 96 -5 4 -40 18
-79 31 -89 29 -136 61 -163 109 -54 95 6 201 113 201 38 0 67 -22 111 -84 19
-27 27 -29 98 -34 55 -3 95 0 142 13 45 12 86 16 137 12 l72 -5 105 102 c192
185 279 224 336 152 l27 -34 21 31 c30 45 83 77 124 77 22 0 65 -15 111 -39
221 -113 344 -94 560 88 92 78 166 181 241 338 51 105 76 146 94 155 14 6 42
36 62 67 58 88 163 185 225 209 65 25 98 27 144 8z"/>
<path d="M9929 4259 l-24 -20 25 12 c19 8 13 -1 -22 -37 -25 -27 -60 -73 -78
-101 -17 -29 -35 -53 -40 -53 -4 0 -16 -29 -25 -64 -17 -63 -19 -215 -3 -232
4 -4 27 6 50 21 52 34 218 200 218 219 0 7 7 27 16 45 12 24 13 36 5 44 -6 6
-11 33 -11 59 0 38 5 54 24 73 l25 25 -22 15 c-32 23 -110 19 -138 -6z"/>
<path d="M5747 4104 c-46 -31 -169 -194 -249 -331 -60 -102 -118 -214 -118
-228 0 -3 -9 -25 -19 -48 -41 -90 -110 -273 -111 -294 0 -2 7 -3 15 -3 14 0
13 -3 -1 -25 -9 -14 -14 -31 -11 -39 4 -10 1 -13 -7 -10 -18 7 -22 -1 -31 -55
-6 -35 -5 -42 6 -36 8 4 4 -1 -7 -13 -26 -24 -62 -197 -71 -337 -6 -89 -6 -90
14 -72 27 23 48 67 74 153 21 71 21 72 77 98 52 24 64 36 138 143 105 152 236
370 312 520 94 186 186 429 155 410 -12 -7 -23 59 -23 136 0 44 -2 49 -20 44
-11 -3 -22 -2 -25 2 -10 17 -64 8 -98 -15z m33 -215 c0 -13 -38 -49 -51 -49
-8 0 -8 -4 -1 -13 9 -10 6 -17 -8 -27 -12 -8 -18 -21 -15 -31 3 -10 -1 -19
-11 -23 -9 -3 -14 -13 -10 -21 3 -8 -2 -18 -10 -23 -9 -5 -16 -13 -16 -18 -1
-18 -17 -50 -37 -73 -19 -21 -23 -23 -35 -10 -19 20 1 89 37 129 15 16 24 30
20 30 -3 0 3 10 15 23 11 12 25 34 31 50 7 18 18 27 32 27 14 0 19 5 16 14 -4
10 -1 13 9 9 9 -3 14 1 14 12 0 9 5 13 10 10 6 -3 10 -10 10 -16z"/>
<path d="M3820 3929 c-88 -36 -266 -115 -550 -244 -113 -51 -284 -128 -380
-170 -264 -115 -310 -137 -370 -172 -30 -18 -73 -41 -95 -51 -22 -11 -78 -42
-124 -71 -94 -57 -134 -68 -185 -51 -37 12 -54 28 -73 69 -11 24 -11 25 -12 4
-1 -12 4 -25 9 -28 18 -11 0 -26 -28 -23 -21 2 -27 -1 -26 -15 2 -13 -3 -16
-18 -11 -14 4 -21 0 -25 -15 -3 -12 -13 -21 -22 -21 -10 0 -28 -12 -42 -26
-13 -14 -53 -49 -89 -77 -36 -28 -77 -62 -93 -76 l-27 -25 24 -25 c60 -63 62
-161 7 -386 -22 -88 -59 -236 -82 -330 -23 -93 -47 -193 -54 -221 -21 -84 -11
-87 108 -27 136 69 178 99 222 154 29 37 41 46 58 41 12 -3 25 -10 29 -15 4
-6 27 -2 61 12 42 17 67 37 107 84 61 72 176 178 239 218 92 59 205 18 218
-78 4 -32 1 -43 -22 -66 -15 -15 -34 -27 -41 -27 -8 0 -20 -15 -27 -33 -18
-42 -107 -122 -188 -170 -70 -40 -89 -65 -120 -153 -52 -152 3 -290 119 -302
43 -4 61 2 145 42 109 53 168 110 212 202 22 47 29 82 41 222 7 92 19 198 25
235 6 38 7 72 3 76 -5 4 -29 13 -54 20 -84 24 -137 58 -165 104 -29 50 -32 85
-10 127 38 73 123 94 174 43 15 -16 34 -39 44 -52 15 -22 25 -25 100 -29 58
-3 101 1 138 11 37 11 75 14 120 10 l66 -6 43 47 c52 56 192 176 240 205 54
32 103 28 135 -11 19 -23 28 -29 32 -19 14 35 61 73 101 82 41 9 51 6 135 -32
131 -61 153 -61 332 0 l150 50 37 78 c21 43 38 83 38 89 0 7 -15 9 -45 4 -68
-10 -63 4 7 20 l60 13 34 71 c19 39 34 78 34 86 0 9 5 21 12 28 29 29 -59 8
-252 -59 -372 -128 -345 -121 -445 -117 -106 5 -150 24 -212 91 -78 85 -91
196 -37 317 16 36 23 64 18 72 -20 31 -11 45 50 86 35 23 72 45 82 49 93 34
264 168 249 193 -11 18 -69 9 -145 -21z"/>
<path d="M7643 3598 c-6 -14 -39 -49 -74 -79 -194 -168 -252 -237 -253 -299
-1 -20 -9 -44 -18 -54 -55 -54 -43 -196 23 -280 29 -37 88 -63 100 -44 10 16
104 14 136 -3 53 -28 141 99 183 264 27 110 43 239 29 247 -6 4 -8 21 -4 41 6
34 -2 50 -102 218 -7 10 -11 8 -20 -11z"/>
<path d="M4900 3401 c-52 -11 -92 -35 -132 -79 -44 -49 -161 -286 -153 -311 3
-11 -3 -25 -15 -36 -30 -27 -57 -80 -130 -255 -28 -69 -65 -156 -82 -195 -59
-138 -207 -561 -239 -684 -46 -178 -5 -275 96 -229 14 6 25 15 25 19 0 4 19
22 42 41 29 23 40 27 35 15 -6 -17 -6 -17 24 0 102 60 300 264 452 466 l85
112 5 175 c4 96 15 236 27 310 11 74 22 162 25 195 7 79 15 115 30 140 19 31
41 148 28 152 -20 7 -4 68 26 93 38 33 46 66 17 74 -28 7 -122 6 -166 -3z"/>
<path d="M8764 2950 c-113 -40 -271 -129 -352 -198 -99 -84 -127 -165 -74
-214 35 -35 72 -48 131 -48 125 0 234 84 305 234 45 94 66 162 66 215 0 36 -5
37 -76 11z"/>
<path d="M3544 2686 c-33 -34 -91 -88 -128 -120 -82 -72 -127 -137 -161 -233
-29 -83 -32 -142 -10 -204 30 -83 94 -129 180 -129 82 0 111 10 151 48 63 61
105 174 139 370 19 110 12 149 -41 230 -19 29 -39 64 -44 78 -5 13 -13 23 -17
23 -5 -1 -35 -29 -69 -63z"/>
</g>
</svg>
